<?xml version="1.0" encoding="utf-8"?>
<!-- Generator: Adobe Illustrator 28.0.0, SVG Export Plug-In . SVG Version: 6.00 Build 0)  -->
<svg version="1.1" id="Capa_1" xmlns="http://www.w3.org/2000/svg" xmlns:xlink="http://www.w3.org/1999/xlink" x="0px" y="0px"
	 viewBox="0 0 500 500" style="enable-background:new 0 0 500 500;" xml:space="preserve">
<style type="text/css">
	.st0{fill:#5B3D91;}
</style>
<g>
	<g>
		
			<ellipse transform="matrix(0.9871 -0.1602 0.1602 0.9871 -30.1008 36.3625)" class="st0" cx="210.5" cy="204.9" rx="5.8" ry="5.8"/>
		<path class="st0" d="M307.9,199.5c-3.2,0-5.8,2.6-5.8,5.8c0,3.2,2.6,5.8,5.8,5.8c3.2,0,5.8-2.6,5.8-5.8
			C313.7,202.1,311.1,199.5,307.9,199.5z"/>
		<path class="st0" d="M268.3,286.4c0.6,1.4,1.6,2.5,2.9,3c1.3,0.6,2.8,0.6,4.2,0.1l5.6-2.2c2.8-1.1,4.2-4.3,3.1-7.1l-0.1,0
			c-1.1-2.8-4.3-4.2-7.1-3.1l-0.5,0.2l-0.2-0.5c-1.1-2.8-4.3-4.2-7.1-3.1s-4.2,4.3-3.1,7.1L268.3,286.4z"/>
		<path class="st0" d="M444.7,166.1c-10.5-37-35.2-61.7-71.3-73.2c-15.7-5-32.2-6-46.5,2.1c-3.8,2.1-7.4,4.9-10.9,8.5
			c-3.1,3.2-5.1,1.3-7.5,0.1c-25.3-12.3-50.5-17-75.7-13C219.6,92.6,206.3,97,193,104c-3,1.6-4.9,1.9-7.4-0.8
			c-3.2-3.4-6.7-6.1-10.2-8.2c-12.9-7.6-27.5-7.1-42.5-2.9c-24,6.7-43.1,21.5-58.4,40.7c-29,36.3-26.1,73.1,7.6,105.8
			c5,4.8,10.5,6.8,15.7,6.2c4-0.4,7.8-2.4,11-5.9c0,0,0,0,0,0c1.9-2.1,3.7-4.7,5-7.8c7.2-16.4,11.5-34,20.3-49.7
			c1.8-3.2,3.8-8.3,8.1-6.8c5,1.8,1.9,6.5,1.1,10c-6.3,26.2-18,50.4-27.6,75.4c-4.7,12.2-6.6,24-6.1,35.4
			c13.8,66.8,72.2,117,142.1,117c41.5,0,78.9-17.6,105.3-45.9l0.2-0.6c4.1-4.3,7.9-8.8,11.5-13.6c10.8-15,19-32.1,23.6-50.6
			c1.9-15.4-0.5-31.4-7.1-48.1c-8.5-21.4-17.5-42.6-25.7-64.1c-1.8-4.6-6.4-12-0.4-14.5c5.7-2.4,7.6,5.6,10.2,10.2
			c8.7,15.3,15.4,31.4,21.5,47.9c0.8,2.2,2.1,4.2,3.7,5.9c2.7,2.9,6.3,4.9,10.1,5.8c4.4,1.1,8.9,0.6,12.4-1.8
			C440.1,227,452.6,193.9,444.7,166.1z M225.7,210.8c0,11.6-9.4,21-21,21c-11.6,0-21-9.4-21-21c0-11.6,9.4-21,21-21
			C216.3,189.8,225.7,199.2,225.7,210.8z M316.3,319.5c-13,21.5-36.2,34-70.5,34.2c-17.2-0.5-37.5-11-54.9-27.8
			c-2-2-3.8-4.4-5.3-6.9c-2.3-3.8-3.5-7.9,1.5-10.7c4.2-2.5,7.5-0.5,9.8,3c2.6,4.1,6.5,7.1,9.6,10.6c5.1,6,10.9,7.8,18.3,7.8
			c8,0,15.8,0.7,18.3-9.4c0.8-3.3,1.3-6.1,1.3-8.6c-5.5-1.7-12.2-4.4-19.2-9.1c-5.3-3.6-9.4-7.4-12.8-11c-5.8-6.3-5.2-16.1,1.5-21.3
			c1.6-1.2,3.4-2.4,5.4-3.3c8.7-4,13.3-0.3,31.1-0.3c19.5,0.1,25.1-4.2,34.2,0.6c0.7,0.3,1.3,0.7,1.9,1.1c7.6,4.9,8.6,15.8,2.3,22.2
			c-2.9,3.1-6.4,6.3-10.6,9.4c-7,5.3-13.8,8.9-19.5,11.4c-0.4,3.6,0.3,7.4,2.3,11.2c3.3,6.5,12.6,8.8,22.3,5.4
			c9-3.2,16.5-8.3,21.7-16.6c2.5-3.9,5.3-9.4,11.2-5.5C322.5,310.1,318.9,315.1,316.3,319.5z M302.4,233c-11.6,0-21-9.4-21-21
			c0-11.6,9.4-21,21-21c11.6,0,21,9.4,21,21C323.4,223.6,314,233,302.4,233z"/>
	</g>
</g>
</svg>
